<svg width="20" height="20" viewBox="0 0 20 20" fill="none" xmlns="http://www.w3.org/2000/svg">
<g clip-path="url(#clip0_1345_79374)">
<rect width="20" height="20" fill="white" fill-opacity="0.01"/>
<g clip-path="url(#clip1_1345_79374)">
<g clip-path="url(#clip2_1345_79374)">
<path d="M11.25 1.25C11.25 0.559644 10.6904 0 10 0C9.30964 0 8.75 0.559644 8.75 1.25V4.75C8.75 5.44036 9.30964 6 10 6C10.6904 6 11.25 5.44036 11.25 4.75V1.25Z" fill="#000714" fill-opacity="0.623529"/>
</g>
<g clip-path="url(#clip3_1345_79374)">
<path d="M4.69663 2.92893C4.20847 2.44077 3.41702 2.44077 2.92886 2.92893C2.44071 3.41708 2.44071 4.20854 2.92886 4.69669L5.40373 7.17157C5.89189 7.65972 6.68335 7.65972 7.1715 7.17157C7.65966 6.68341 7.65966 5.89196 7.1715 5.4038L4.69663 2.92893Z" fill="#00071B" fill-opacity="0.498039"/>
</g>
<g clip-path="url(#clip4_1345_79374)">
<path d="M1.25 8.75C0.559644 8.75 2.44628e-08 9.30964 5.46392e-08 10C8.48157e-08 10.6904 0.559644 11.25 1.25 11.25L4.75 11.25C5.44036 11.25 6 10.6904 6 10C6 9.30964 5.44036 8.75 4.75 8.75L1.25 8.75Z" fill="#00051D" fill-opacity="0.454902"/>
</g>
<g clip-path="url(#clip5_1345_79374)">
<path d="M2.92905 15.3033C2.44089 15.7915 2.44089 16.5829 2.92905 17.0711C3.4172 17.5592 4.20866 17.5592 4.69682 17.0711L7.17169 14.5962C7.65985 14.108 7.65985 13.3166 7.17169 12.8284C6.68353 12.3403 5.89208 12.3403 5.40392 12.8284L2.92905 15.3033Z" fill="#000830" fill-opacity="0.27451"/>
</g>
<g clip-path="url(#clip6_1345_79374)">
<path d="M8.75 18.75C8.75 19.4404 9.30964 20 10 20C10.6904 20 11.25 19.4404 11.25 18.75L11.25 15.25C11.25 14.5596 10.6904 14 10 14C9.30964 14 8.75 14.5596 8.75 15.25L8.75 18.75Z" fill="#00062E" fill-opacity="0.196078"/>
</g>
<g clip-path="url(#clip7_1345_79374)">
<path d="M15.3034 17.0711C15.7915 17.5592 16.583 17.5592 17.0711 17.0711C17.5593 16.5829 17.5593 15.7915 17.0711 15.3033L14.5963 12.8284C14.1081 12.3403 13.3167 12.3403 12.8285 12.8284C12.3403 13.3166 12.3403 14.108 12.8285 14.5962L15.3034 17.0711Z" fill="#00002F" fill-opacity="0.14902"/>
</g>
<g clip-path="url(#clip8_1345_79374)">
<path d="M18.75 11.25C19.4404 11.25 20 10.6904 20 10C20 9.30964 19.4404 8.75 18.75 8.75L15.25 8.75C14.5596 8.75 14 9.30964 14 10C14 10.6904 14.5596 11.25 15.25 11.25L18.75 11.25Z" fill="#000932" fill-opacity="0.121569"/>
</g>
<g clip-path="url(#clip9_1345_79374)">
<path d="M17.071 4.69669C17.5591 4.20853 17.5591 3.41708 17.071 2.92892C16.5828 2.44077 15.7913 2.44077 15.3032 2.92892L12.8283 5.4038C12.3402 5.89195 12.3402 6.68341 12.8283 7.17156C13.3165 7.65972 14.1079 7.65972 14.5961 7.17156L17.071 4.69669Z" fill="#00002D" fill-opacity="0.05"/>
</g>
</g>
</g>
<defs>
<clipPath id="clip0_1345_79374">
<rect width="20" height="20" fill="white"/>
</clipPath>
<clipPath id="clip1_1345_79374">
<rect width="20" height="20" fill="white" transform="matrix(-1 0 0 1 20 0)"/>
</clipPath>
<clipPath id="clip2_1345_79374">
<rect width="2.5" height="20" fill="white" transform="matrix(-1 0 0 1 11.25 0)"/>
</clipPath>
<clipPath id="clip3_1345_79374">
<rect width="2.5" height="20" fill="white" transform="matrix(-0.707107 0.707107 0.707107 0.707107 3.81274 2.04504)"/>
</clipPath>
<clipPath id="clip4_1345_79374">
<rect width="2.5" height="20" fill="white" transform="matrix(4.37114e-08 1 1 -4.37114e-08 0 8.75)"/>
</clipPath>
<clipPath id="clip5_1345_79374">
<rect width="2.5" height="20" fill="white" transform="matrix(0.707107 0.707107 0.707107 -0.707107 2.04517 16.1872)"/>
</clipPath>
<clipPath id="clip6_1345_79374">
<rect width="2.5" height="20" fill="white" transform="matrix(1 -8.74228e-08 -8.74228e-08 -1 8.75 20)"/>
</clipPath>
<clipPath id="clip7_1345_79374">
<rect width="2.5" height="20" fill="white" transform="matrix(0.707107 -0.707107 -0.707107 -0.707107 16.1873 17.955)"/>
</clipPath>
<clipPath id="clip8_1345_79374">
<rect width="2.5" height="20" fill="white" transform="matrix(-1.39071e-07 -1 -1 1.39071e-07 20 11.25)"/>
</clipPath>
<clipPath id="clip9_1345_79374">
<rect width="2.5" height="20" fill="white" transform="matrix(-0.707107 -0.707107 -0.707107 0.707107 17.9548 3.81281)"/>
</clipPath>
</defs>
</svg>
