<svg width="24" height="24" viewBox="0 0 24 24" fill="none" xmlns="http://www.w3.org/2000/svg">
<path fill-rule="evenodd" clip-rule="evenodd" d="M11.5253 2.41434C11.8152 2.13744 12.2715 2.13744 12.5614 2.41434L17.3613 6.99949C17.6609 7.2856 17.6717 7.76035 17.3856 8.05987C17.0995 8.35939 16.6247 8.37026 16.3252 8.08414L12.7933 4.7103V14.9567C12.7933 15.3709 12.4575 15.7067 12.0433 15.7067C11.6291 15.7067 11.2933 15.3709 11.2933 14.9567L11.2933 4.71029L7.76139 8.08414C7.46187 8.37026 6.98712 8.35939 6.70101 8.05987C6.41489 7.76035 6.42576 7.2856 6.72528 6.99949L11.5253 2.41434ZM3.59998 14.4699C4.01419 14.4699 4.34998 14.8056 4.34998 15.2199V18.9257C4.34998 19.2905 4.49372 19.639 4.7476 19.895C5.00126 20.1508 5.34397 20.2934 5.69998 20.2934H18.3C18.656 20.2934 18.9987 20.1508 19.2524 19.895C19.5062 19.639 19.65 19.2905 19.65 18.9257V15.2199C19.65 14.8056 19.9858 14.4699 20.4 14.4699C20.8142 14.4699 21.15 14.8056 21.15 15.2199V18.9257C21.15 19.6843 20.8512 20.413 20.3174 20.9512C19.7835 21.4897 19.0579 21.7934 18.3 21.7934H5.69998C4.94207 21.7934 4.21649 21.4897 3.68251 20.9512C3.14873 20.413 2.84998 19.6843 2.84998 18.9257V15.2199C2.84998 14.8056 3.18576 14.4699 3.59998 14.4699Z" fill="#030712"/>
</svg>
