<svg width="24" height="24" viewBox="0 0 24 24" fill="none" xmlns="http://www.w3.org/2000/svg">
<path fill-rule="evenodd" clip-rule="evenodd" d="M8.4 22.95C6.6603 22.95 5.25 21.5396 5.25 19.8V7.79995C5.25 6.06025 6.6603 4.64995 8.4 4.64995H15.6C17.3397 4.64995 18.75 6.06026 18.75 7.79995V19.8C18.75 21.5396 17.3397 22.95 15.6 22.95H8.4ZM6.75 19.8C6.75 20.7112 7.48873 21.45 8.4 21.45H15.6C16.5113 21.45 17.25 20.7112 17.25 19.8V7.79995C17.25 6.88868 16.5113 6.14995 15.6 6.14995H8.4C7.48873 6.14995 6.75 6.88868 6.75 7.79995V19.8ZM9.6 19.35C9.18579 19.35 8.85 19.0142 8.85 18.6V8.99995C8.85 8.58574 9.18579 8.24995 9.6 8.24995H14.4C14.8142 8.24995 15.15 8.58574 15.15 8.99995V18.6C15.15 19.0142 14.8142 19.35 14.4 19.35H9.6ZM9.45 1.79995C9.45 1.38574 9.78579 1.04995 10.2 1.04995H13.8C14.2142 1.04995 14.55 1.38574 14.55 1.79995C14.55 2.21416 14.2142 2.54995 13.8 2.54995H10.2C9.78579 2.54995 9.45 2.21416 9.45 1.79995Z" fill="#030712"/>
</svg>
