<svg width="24" height="24" viewBox="0 0 24 24" fill="none" xmlns="http://www.w3.org/2000/svg">
<path fill-rule="evenodd" clip-rule="evenodd" d="M8.23217 2.86233C8.36657 2.63192 8.61325 2.49023 8.88 2.49023H15.12C15.3868 2.49023 15.6334 2.63192 15.7678 2.86233L17.2308 5.37023H19.2C20.9397 5.37023 22.35 6.78054 22.35 8.52023V18.3602C22.35 20.0999 20.9397 21.5102 19.2 21.5102H4.8C3.0603 21.5102 1.65 20.0999 1.65 18.3602V8.52023C1.65 6.78053 3.06031 5.37023 4.8 5.37023H6.76922L8.23217 2.86233ZM9.31078 3.99023L7.84784 6.49814C7.71343 6.72855 7.46675 6.87023 7.2 6.87023H4.8C3.88873 6.87023 3.15 7.60896 3.15 8.52023V18.3602C3.15 19.2715 3.88873 20.0102 4.8 20.0102H19.2C20.1113 20.0102 20.85 19.2715 20.85 18.3602V8.52023C20.85 7.60896 20.1113 6.87023 19.2 6.87023H16.8C16.5332 6.87023 16.2866 6.72855 16.1522 6.49814L14.6892 3.99023H9.31078ZM12 9.99023C10.426 9.99023 9.15 11.2662 9.15 12.8402C9.15 14.4142 10.426 15.6902 12 15.6902C13.574 15.6902 14.85 14.4142 14.85 12.8402C14.85 11.2662 13.574 9.99023 12 9.99023ZM7.65 12.8402C7.65 10.4378 9.59756 8.49023 12 8.49023C14.4024 8.49023 16.35 10.4378 16.35 12.8402C16.35 15.2427 14.4024 17.1902 12 17.1902C9.59756 17.1902 7.65 15.2427 7.65 12.8402Z" fill="#030712"/>
</svg>
