<svg width="24" height="24" viewBox="0 0 24 24" fill="none" xmlns="http://www.w3.org/2000/svg">
<path fill-rule="evenodd" clip-rule="evenodd" d="M3.20111 12.1071C3.20173 12.1086 3.20235 12.1101 3.20297 12.1115C3.2722 12.2754 3.38076 12.5148 3.53369 12.8051C3.84027 13.3868 4.32099 14.1645 5.01425 14.9439C6.3925 16.4935 8.6057 18.0499 12.0123 18.1057C15.4027 18.1611 17.6052 16.6137 18.9814 15.0387C19.674 14.246 20.1549 13.4473 20.4621 12.8468C20.6153 12.5473 20.7241 12.2995 20.7936 12.1295C20.7961 12.1236 20.7984 12.1177 20.8008 12.112C20.7981 12.1052 20.7954 12.0982 20.7927 12.0911C20.7252 11.9178 20.6193 11.6649 20.4694 11.3591C20.1687 10.7459 19.6955 9.92908 19.0078 9.11484C17.6412 7.4969 15.4366 5.89282 12 5.89282C8.56343 5.89282 6.35876 7.4969 4.99219 9.11484C4.30445 9.92908 3.83128 10.7459 3.53061 11.3591C3.38067 11.6649 3.27476 11.9178 3.20731 12.0911C3.2052 12.0966 3.20314 12.1019 3.20111 12.1071ZM21.6 12.119C22.3157 11.8948 22.3156 11.8945 22.3155 11.8941L22.3152 11.8931L22.3145 11.8908L22.3124 11.8843L22.3057 11.8637C22.3 11.8467 22.2921 11.8233 22.2819 11.7937C22.2613 11.7347 22.2311 11.6514 22.1906 11.5472C22.1096 11.3391 21.9869 11.047 21.8162 10.6987C21.4755 10.0039 20.9391 9.07672 20.1537 8.14694C18.5741 6.27681 15.9788 4.39282 12 4.39282C8.02117 4.39282 5.42584 6.27681 3.84626 8.14694C3.06092 9.07672 2.52448 10.0039 2.1838 10.6987C2.01307 11.047 1.89037 11.3391 1.80939 11.5472C1.76887 11.6514 1.73871 11.7347 1.71813 11.7937C1.70784 11.8233 1.69994 11.8467 1.69433 11.8637L1.68762 11.8843L1.68553 11.8908L1.68479 11.8931L1.68451 11.8941C1.68438 11.8945 1.68427 11.8948 2.39999 12.119L1.68427 11.8948L1.61063 12.13L1.69081 12.363L2.39999 12.119C1.69081 12.363 1.69093 12.3634 1.69107 12.3637L1.69138 12.3647L1.69218 12.3669L1.69441 12.3733L1.7015 12.3931C1.70741 12.4095 1.7157 12.4319 1.72645 12.4602C1.74794 12.5166 1.77932 12.5961 1.82129 12.6955C1.90519 12.894 2.03173 13.1724 2.20668 13.5044C2.55587 14.167 3.10207 15.051 3.89343 15.9408C5.48441 17.7295 8.07121 19.5414 11.9877 19.6055C15.9204 19.6698 18.5179 17.8489 20.1109 16.0256C20.9029 15.1192 21.4489 14.2113 21.7975 13.53C21.9722 13.1885 22.0984 12.9017 22.1821 12.6972C22.2239 12.5949 22.2551 12.513 22.2765 12.4549C22.2872 12.4258 22.2954 12.4027 22.3013 12.386L22.3083 12.3657L22.3104 12.3593L22.3112 12.357L22.3115 12.3561C22.3116 12.3557 22.3118 12.3553 21.6 12.119ZM21.6 12.119L22.3118 12.3553L22.388 12.1257L22.3157 11.8948L21.6 12.119ZM12 10.4438C11.0693 10.4438 10.35 11.1727 10.35 12.0291C10.35 12.8855 11.0693 13.6145 12 13.6145C12.9307 13.6145 13.65 12.8855 13.65 12.0291C13.65 11.1727 12.9307 10.4438 12 10.4438ZM8.84999 12.0291C8.84999 10.306 10.2797 8.94377 12 8.94377C13.7203 8.94377 15.15 10.306 15.15 12.0291C15.15 13.7523 13.7203 15.1145 12 15.1145C10.2797 15.1145 8.84999 13.7523 8.84999 12.0291Z" fill="#030712"/>
</svg>
