<svg width="24" height="24" viewBox="0 0 24 24" fill="none" xmlns="http://www.w3.org/2000/svg">
<path fill-rule="evenodd" clip-rule="evenodd" d="M4.86966 3.96967C5.16256 3.67678 5.63743 3.67678 5.93032 3.96967L20.9303 18.9697C21.2232 19.2626 21.2232 19.7374 20.9303 20.0303C20.6374 20.3232 20.1626 20.3232 19.8697 20.0303L17.8141 17.9748C17.8105 17.9771 17.807 17.9794 17.8034 17.9817C16.3082 18.9355 14.3914 19.6019 11.9877 19.5626C8.07121 19.4986 5.48441 17.6867 3.89343 15.898C3.10207 15.0082 2.55587 14.1242 2.20668 13.4615C2.03173 13.1295 1.90519 12.8512 1.82129 12.6526C1.77932 12.5533 1.74794 12.4738 1.72645 12.4174C1.7157 12.3891 1.70741 12.3666 1.7015 12.3503L1.69441 12.3305L1.69218 12.3241L1.69138 12.3218L1.69107 12.3209C1.69093 12.3205 1.69081 12.3202 2.39999 12.0761C1.68427 11.852 1.68435 11.8517 1.68443 11.8515L1.68461 11.8509L1.68506 11.8495L1.68625 11.8457L1.68984 11.8346L1.70198 11.798C1.71231 11.7674 1.72715 11.7245 1.74678 11.6706C1.78601 11.5627 1.84443 11.4103 1.92415 11.2228C2.08342 10.8481 2.32879 10.3305 2.67765 9.74593C3.34525 8.62719 4.40593 7.23969 5.9893 6.14996L4.86966 5.03033C4.57677 4.73744 4.57677 4.26256 4.86966 3.96967ZM7.06844 7.2291C7.04997 7.24383 7.03064 7.25783 7.01047 7.27102C5.56303 8.21756 4.58484 9.47712 3.96573 10.5146C3.65735 11.0314 3.44188 11.4867 3.30461 11.8096C3.26294 11.9076 3.22859 11.9932 3.20111 12.0643C3.20173 12.0658 3.20235 12.0672 3.20297 12.0687C3.2722 12.2325 3.38076 12.472 3.53369 12.7622C3.84027 13.344 4.32099 14.1216 5.01425 14.9011C6.3925 16.4507 8.6057 18.0071 12.0123 18.0628C13.9589 18.0947 15.5039 17.5993 16.7236 16.8842L14.1129 14.2736C14.1032 14.2829 14.0932 14.2921 14.0829 14.301C13.5264 14.7817 12.7956 15.0717 12 15.0717C10.2797 15.0717 8.84999 13.7095 8.84999 11.9863C8.84999 11.1982 9.15246 10.4801 9.64447 9.93769C9.66576 9.91422 9.68819 9.89242 9.71161 9.87228L7.06844 7.2291ZM10.7692 10.9299C10.7647 10.9351 10.7602 10.9403 10.7555 10.9455C10.5007 11.2264 10.35 11.5899 10.35 11.9863C10.35 12.8427 11.0693 13.5717 12 13.5717C12.4011 13.5717 12.7653 13.435 13.0492 13.2099L10.7692 10.9299ZM2.39999 12.0761L1.68427 11.852L1.61063 12.0872L1.69081 12.3202L2.39999 12.0761ZM12 5.85C11.6101 5.85 11.2372 5.87059 10.8806 5.90915C10.4688 5.95367 10.0989 5.65593 10.0543 5.24412C10.0098 4.8323 10.3076 4.46237 10.7194 4.41784C11.1305 4.37339 11.5572 4.35 12 4.35C15.9788 4.35 18.5741 6.23398 20.1537 8.10411C20.9391 9.0339 21.4755 9.9611 21.8162 10.6559C21.9869 11.0041 22.1096 11.2963 22.1906 11.5044C22.2311 11.6086 22.2613 11.6919 22.2819 11.7509C22.2921 11.7804 22.3 11.8039 22.3057 11.8209L22.3124 11.8415L22.3145 11.848L22.3152 11.8503L22.3155 11.8512C22.3156 11.8516 22.3157 11.852 21.6 12.0761C22.3118 12.3125 22.3117 12.3126 22.3117 12.3128L22.3116 12.3131L22.3114 12.3137L22.3108 12.3153L22.3094 12.3196L22.305 12.3325C22.3013 12.3431 22.2963 12.3574 22.2898 12.3754C22.2769 12.4113 22.2583 12.4617 22.2337 12.525C22.1844 12.6516 22.111 12.8302 22.0107 13.0484C21.8103 13.4841 21.5014 14.0812 21.0625 14.7383C20.8324 15.0827 20.3666 15.1754 20.0222 14.9453C19.6778 14.7152 19.5851 14.2495 19.8151 13.9051C20.2024 13.3253 20.4741 12.7996 20.6478 12.4218C20.7121 12.2819 20.7628 12.1627 20.8008 12.0692C20.7981 12.0624 20.7954 12.0554 20.7927 12.0483C20.7252 11.875 20.6193 11.6221 20.4694 11.3163C20.1687 10.7031 19.6955 9.88626 19.0078 9.07202C17.6412 7.45408 15.4366 5.85 12 5.85ZM21.6 12.0761L22.3118 12.3125L22.388 12.0829L22.3157 11.852L21.6 12.0761Z" fill="#030712"/>
</svg>
