<svg width="24" height="24" viewBox="0 0 24 24" fill="none" xmlns="http://www.w3.org/2000/svg">
<path fill-rule="evenodd" clip-rule="evenodd" d="M13.1156 2.5899C12.4454 2.1367 11.5546 2.1367 10.8844 2.5899L3.08443 7.86476C2.57012 8.21256 2.25 8.78754 2.25 9.41605V19.2882C2.25 20.6829 3.42763 21.75 4.8 21.75H19.2C20.5724 21.75 21.75 20.6829 21.75 19.2882V9.41605C21.75 8.78754 21.4299 8.21257 20.9156 7.86476L13.1156 2.5899ZM7.5 16.3125C7.08579 16.3125 6.75 16.6483 6.75 17.0625C6.75 17.4767 7.08579 17.8125 7.5 17.8125H16.5C16.9142 17.8125 17.25 17.4767 17.25 17.0625C17.25 16.6483 16.9142 16.3125 16.5 16.3125H7.5Z" fill="#030712"/>
</svg>
