<svg width="24" height="24" viewBox="0 0 24 24" fill="none" xmlns="http://www.w3.org/2000/svg">
<path fill-rule="evenodd" clip-rule="evenodd" d="M7.19999 1.6499C5.46029 1.6499 4.04999 3.0602 4.04999 4.7999V19.1999C4.04999 20.9396 5.46029 22.3499 7.19999 22.3499H16.8C18.5397 22.3499 19.95 20.9396 19.95 19.1999V4.79992C19.95 3.06022 18.5397 1.64992 16.8 1.64992L7.19999 1.6499ZM9 5.25C8.58579 5.25 8.25 5.58579 8.25 6C8.25 6.41421 8.58579 6.75 9 6.75H15C15.4142 6.75 15.75 6.41421 15.75 6C15.75 5.58579 15.4142 5.25 15 5.25H9ZM12 16.05C11.5858 16.05 11.25 16.3858 11.25 16.8V16.8769C11.25 17.2911 11.5858 17.6269 12 17.6269H12.085C12.4992 17.6269 12.835 17.2911 12.835 16.8769V16.8C12.835 16.3858 12.4992 16.05 12.085 16.05H12Z" fill="#030712"/>
</svg>
