<svg width="16" height="22" viewBox="0 0 16 22" fill="none" xmlns="http://www.w3.org/2000/svg">
<path fill-rule="evenodd" clip-rule="evenodd" d="M3.19999 2.1499C2.28872 2.1499 1.54999 2.88863 1.54999 3.7999V18.1999C1.54999 19.1112 2.28872 19.8499 3.19999 19.8499H12.8C13.7113 19.8499 14.45 19.1112 14.45 18.1999V3.79992C14.45 2.88865 13.7113 2.14992 12.8 2.14992L3.19999 2.1499ZM0.0499878 3.7999C0.0499878 2.0602 1.46029 0.6499 3.19999 0.649902L12.8 0.649916C14.5397 0.649919 15.95 2.06022 15.95 3.79992V18.1999C15.95 19.9396 14.5397 21.3499 12.8 21.3499H3.19999C1.46029 21.3499 0.0499878 19.9396 0.0499878 18.1999V3.7999ZM4.24999 4.99992C4.24999 4.58571 4.58577 4.24992 4.99999 4.24992H11C11.4142 4.24992 11.75 4.58571 11.75 4.99992C11.75 5.41413 11.4142 5.74992 11 5.74992H4.99999C4.58577 5.74992 4.24999 5.41413 4.24999 4.99992ZM7.24999 15.7999C7.24999 15.3857 7.58577 15.0499 7.99999 15.0499H8.085C8.49921 15.0499 8.835 15.3857 8.835 15.7999V15.8768C8.835 16.291 8.49921 16.6268 8.085 16.6268H7.99999C7.58577 16.6268 7.24999 16.291 7.24999 15.8768V15.7999Z" fill="#030712"/>
</svg>
