<svg width="24" height="24" viewBox="0 0 24 24" fill="none" xmlns="http://www.w3.org/2000/svg">
<path fill-rule="evenodd" clip-rule="evenodd" d="M6.00002 3.1499C4.42601 3.1499 3.15003 4.42589 3.15003 5.9999L3.15002 14.2499L20.85 14.2499V5.9999C20.85 4.42589 19.574 3.1499 18 3.1499L6.00002 3.1499ZM20.85 15.7499L3.15002 15.7499L3.15002 17.9999C3.15002 19.5739 4.42601 20.8499 6.00002 20.8499H18C19.574 20.8499 20.85 19.5739 20.85 17.9999V15.7499ZM1.65002 5.9999C1.65003 3.59746 3.59759 1.6499 6.00002 1.6499L18 1.6499C20.4025 1.6499 22.35 3.59747 22.35 5.9999V17.9999C22.35 20.4023 20.4025 22.3499 18 22.3499H6.00002C3.59758 22.3499 1.65002 20.4023 1.65002 17.9999L1.65002 5.9999Z" fill="#030712"/>
</svg>
