<svg width="18" height="18" viewBox="0 0 18 18" fill="none" xmlns="http://www.w3.org/2000/svg">
<path fill-rule="evenodd" clip-rule="evenodd" d="M2.4375 4.5C2.4375 4.18934 2.68934 3.9375 3 3.9375H15C15.3107 3.9375 15.5625 4.18934 15.5625 4.5C15.5625 4.81066 15.3107 5.0625 15 5.0625H3C2.68934 5.0625 2.4375 4.81066 2.4375 4.5ZM2.4375 9C2.4375 8.68934 2.68934 8.4375 3 8.4375H15C15.3107 8.4375 15.5625 8.68934 15.5625 9C15.5625 9.31066 15.3107 9.5625 15 9.5625H3C2.68934 9.5625 2.4375 9.31066 2.4375 9ZM2.4375 13.5C2.4375 13.1893 2.68934 12.9375 3 12.9375H15C15.3107 12.9375 15.5625 13.1893 15.5625 13.5C15.5625 13.8107 15.3107 14.0625 15 14.0625H3C2.68934 14.0625 2.4375 13.8107 2.4375 13.5Z" fill="#1C2024"/>
</svg>
