<svg width="16" height="16" viewBox="0 0 16 16" fill="none" xmlns="http://www.w3.org/2000/svg">
<path fill-rule="evenodd" clip-rule="evenodd" d="M7.99995 2.69995C8.27609 2.69995 8.49995 2.92381 8.49995 3.19995V7.49995H12.8C13.0761 7.49995 13.3 7.72381 13.3 7.99995C13.3 8.27609 13.0761 8.49995 12.8 8.49995H8.49995V12.8C8.49995 13.0761 8.27609 13.3 7.99995 13.3C7.72381 13.3 7.49995 13.0761 7.49995 12.8L7.49995 8.49995H3.19995C2.92381 8.49995 2.69995 8.27609 2.69995 7.99995C2.69995 7.72381 2.92381 7.49995 3.19995 7.49995H7.49995L7.49995 3.19995C7.49995 2.92381 7.72381 2.69995 7.99995 2.69995Z" fill="#0057D4" fill-opacity="0.9216"/>
</svg>
