<svg width="18" height="18" viewBox="0 0 18 18" fill="none" xmlns="http://www.w3.org/2000/svg">
<path fill-rule="evenodd" clip-rule="evenodd" d="M9.465 2.48733C9.66652 2.39635 9.90263 2.43188 10.0684 2.57812L16.2342 8.01562C16.8267 8.53815 16.8267 9.46185 16.2342 9.98437L10.0684 15.4219C9.90263 15.5681 9.66652 15.6037 9.465 15.5127C9.26347 15.4217 9.13395 15.2211 9.13395 15V12.1881C7.67318 12.1929 6.42405 12.2331 5.28998 12.5581C4.0826 12.904 2.98624 13.5808 1.95 14.9625C1.80473 15.1562 1.55182 15.2352 1.32212 15.1586C1.09243 15.0821 0.9375 14.8672 0.9375 14.625C0.9375 11.161 2.08421 8.92957 3.80002 7.57665C5.37052 6.33831 7.34167 5.89698 9.13395 5.82386V3.00001C9.13395 2.7789 9.26347 2.5783 9.465 2.48733ZM10.259 4.24606V6.22501C10.259 6.61756 9.94275 6.934 9.5532 6.93829C7.78208 6.95783 5.91299 7.34323 4.4966 8.46007C3.35092 9.36345 2.44114 10.7935 2.15596 13.0554C3.03143 12.2536 3.96989 11.7661 4.98008 11.4766C6.39718 11.0705 7.93552 11.0629 9.54578 11.0625C9.93698 11.0624 10.259 11.3791 10.259 11.775V13.7539L15.4901 9.14062C15.5747 9.066 15.5747 8.934 15.4901 8.85937L10.259 4.24606Z" fill="#1C2024"/>
</svg>
