<svg width="24" height="24" viewBox="0 0 24 24" fill="none" xmlns="http://www.w3.org/2000/svg">
<path fill-rule="evenodd" clip-rule="evenodd" d="M19.9501 13.8154V5.78744C19.9501 5.50336 19.7895 5.24361 19.5355 5.11656L13.9454 2.32155C12.7208 1.70922 11.2793 1.70922 10.0547 2.32155L4.46464 5.11656C4.21055 5.24361 4.05005 5.5033 4.05005 5.78738V13.8154C4.05005 15.1965 4.8575 16.5383 6.12315 17.8403C7.40415 19.1582 9.26178 20.5451 11.5996 22.0215C11.8442 22.176 12.1559 22.176 12.4005 22.0215C14.7089 20.5637 16.5757 19.3246 17.8606 18.0817C19.166 16.8189 19.9501 15.4761 19.9501 13.8154ZM15.5304 9.91754C15.8233 9.62464 15.8233 9.14977 15.5304 8.85688C15.2375 8.56398 14.7627 8.56398 14.4698 8.85688L11.4001 11.9265L10.1304 10.6569C9.83753 10.364 9.36266 10.364 9.06977 10.6569C8.77687 10.9498 8.77687 11.4246 9.06977 11.7175L10.8698 13.5175C11.1627 13.8104 11.6375 13.8104 11.9304 13.5175L15.5304 9.91754Z" fill="#030712"/>
</svg>
