<svg width="24" height="24" viewBox="0 0 24 24" fill="none" xmlns="http://www.w3.org/2000/svg">
<path d="M3.87171 16C3.44789 16 3.04052 15.9339 2.64959 15.8017C2.26231 15.6657 1.92253 15.4729 1.63024 15.2231C1.33796 14.9697 1.12788 14.6667 1 14.314L2.255 13.8512C2.30615 13.9982 2.41028 14.1322 2.56738 14.2534C2.72449 14.3747 2.9163 14.472 3.14282 14.5455C3.36934 14.6189 3.61231 14.6556 3.87171 14.6556C4.13842 14.6556 4.38686 14.6152 4.61704 14.5344C4.85087 14.45 5.03903 14.3343 5.18152 14.1873C5.324 14.0367 5.39525 13.8623 5.39525 13.6639C5.39525 13.4619 5.32035 13.2966 5.17055 13.168C5.02076 13.0358 4.82895 12.9311 4.59512 12.854C4.36129 12.7769 4.12015 12.7181 3.87171 12.6777C3.32733 12.5932 2.83957 12.4628 2.40845 12.2865C1.97733 12.1102 1.63572 11.8659 1.38363 11.5537C1.13518 11.2415 1.01096 10.8375 1.01096 10.3416C1.01096 9.87512 1.14432 9.4674 1.41103 9.11846C1.67774 8.76951 2.02848 8.4977 2.46326 8.30303C2.89803 8.10836 3.36752 8.01102 3.87171 8.01102C4.29187 8.01102 4.69742 8.07714 5.08835 8.20937C5.47928 8.3416 5.82089 8.53444 6.11318 8.78788C6.40912 9.04132 6.62102 9.34619 6.7489 9.70248L5.48842 10.1598C5.43727 10.0129 5.33314 9.87879 5.17604 9.75758C5.01893 9.63636 4.82712 9.54086 4.6006 9.47107C4.37408 9.39761 4.13111 9.36088 3.87171 9.36088C3.61231 9.35721 3.36569 9.39945 3.13186 9.4876C2.90169 9.57208 2.71353 9.68779 2.56738 9.83471C2.42124 9.98163 2.34817 10.1506 2.34817 10.3416C2.34817 10.5877 2.41576 10.7732 2.55094 10.8981C2.68978 11.023 2.87428 11.1148 3.10446 11.1736C3.33463 11.2287 3.59038 11.2801 3.87171 11.3278C4.38321 11.4086 4.85635 11.5445 5.29112 11.7355C5.7259 11.9265 6.07481 12.1818 6.33787 12.5014C6.60093 12.8173 6.73246 13.2048 6.73246 13.6639C6.73246 14.1304 6.60093 14.5399 6.33787 14.8926C6.07481 15.2415 5.7259 15.5133 5.29112 15.708C4.85635 15.9027 4.38321 16 3.87171 16Z" fill="#1C2024"/>
<path d="M11.4197 16C10.9009 16 10.4131 15.8972 9.95642 15.6915C9.49973 15.4821 9.09783 15.1938 8.75074 14.8264C8.40365 14.4591 8.13146 14.0349 7.93417 13.5537C7.73688 13.0689 7.63823 12.551 7.63823 12C7.63823 11.449 7.73688 10.933 7.93417 10.4518C8.13146 9.96694 8.40365 9.54086 8.75074 9.17355C9.09783 8.80624 9.49973 8.51974 9.95642 8.31405C10.4131 8.10468 10.9009 8 11.4197 8C11.9421 8 12.4317 8.10468 12.8884 8.31405C13.3451 8.51974 13.747 8.80624 14.0941 9.17355C14.4412 9.54086 14.7115 9.96694 14.9052 10.4518C15.1025 10.933 15.2011 11.449 15.2011 12C15.2011 12.551 15.1025 13.0689 14.9052 13.5537C14.7115 14.0349 14.4412 14.4591 14.0941 14.8264C13.747 15.1938 13.3451 15.4821 12.8884 15.6915C12.4317 15.8972 11.9421 16 11.4197 16ZM11.4197 14.6556C11.7558 14.6556 12.0718 14.5859 12.3678 14.4463C12.6637 14.3067 12.9231 14.1157 13.146 13.8733C13.3725 13.6272 13.5479 13.3444 13.6721 13.0248C13.8 12.7052 13.8639 12.3636 13.8639 12C13.8639 11.6364 13.8 11.2948 13.6721 10.9752C13.5442 10.652 13.367 10.3691 13.1405 10.1267C12.9176 9.8843 12.6582 9.6933 12.3623 9.55372C12.07 9.41414 11.7558 9.34435 11.4197 9.34435C11.0835 9.34435 10.7675 9.41414 10.4716 9.55372C10.1756 9.6933 9.91441 9.88613 9.68789 10.1322C9.46502 10.3747 9.28965 10.6556 9.16177 10.9752C9.03755 11.2948 8.97544 11.6364 8.97544 12C8.97544 12.3673 9.03938 12.7107 9.16725 13.0303C9.29513 13.3499 9.4705 13.6327 9.69337 13.8788C9.91989 14.1212 10.1793 14.3122 10.4716 14.4518C10.7675 14.5877 11.0835 14.6556 11.4197 14.6556Z" fill="#1C2024"/>
<path d="M19.1228 16C18.699 16 18.2916 15.9339 17.9007 15.8017C17.5134 15.6657 17.1736 15.4729 16.8813 15.2231C16.5891 14.9697 16.379 14.6667 16.2511 14.314L17.5061 13.8512C17.5573 13.9982 17.6614 14.1322 17.8185 14.2534C17.9756 14.3747 18.1674 14.472 18.3939 14.5455C18.6204 14.6189 18.8634 14.6556 19.1228 14.6556C19.3895 14.6556 19.638 14.6152 19.8681 14.5344C20.102 14.45 20.2901 14.3343 20.4326 14.1873C20.5751 14.0367 20.6464 13.8623 20.6464 13.6639C20.6464 13.4619 20.5715 13.2966 20.4217 13.168C20.2719 13.0358 20.08 12.9311 19.8462 12.854C19.6124 12.7769 19.3713 12.7181 19.1228 12.6777C18.5784 12.5932 18.0907 12.4628 17.6596 12.2865C17.2284 12.1102 16.8868 11.8659 16.6347 11.5537C16.3863 11.2415 16.2621 10.8375 16.2621 10.3416C16.2621 9.87512 16.3954 9.4674 16.6621 9.11846C16.9288 8.76951 17.2796 8.4977 17.7144 8.30303C18.1491 8.10836 18.6186 8.01102 19.1228 8.01102C19.543 8.01102 19.9485 8.07714 20.3395 8.20937C20.7304 8.3416 21.072 8.53444 21.3643 8.78788C21.6602 9.04132 21.8721 9.34619 22 9.70248L20.7395 10.1598C20.6884 10.0129 20.5842 9.87879 20.4271 9.75758C20.27 9.63636 20.0782 9.54086 19.8517 9.47107C19.6252 9.39761 19.3822 9.36088 19.1228 9.36088C18.8634 9.35721 18.6168 9.39945 18.383 9.4876C18.1528 9.57208 17.9646 9.68779 17.8185 9.83471C17.6723 9.98163 17.5993 10.1506 17.5993 10.3416C17.5993 10.5877 17.6669 10.7732 17.802 10.8981C17.9409 11.023 18.1254 11.1148 18.3556 11.1736C18.5857 11.2287 18.8415 11.2801 19.1228 11.3278C19.6343 11.4086 20.1074 11.5445 20.5422 11.7355C20.977 11.9265 21.3259 12.1818 21.589 12.5014C21.852 12.8173 21.9836 13.2048 21.9836 13.6639C21.9836 14.1304 21.852 14.5399 21.589 14.8926C21.3259 15.2415 20.977 15.5133 20.5422 15.708C20.1074 15.9027 19.6343 16 19.1228 16Z" fill="#1C2024"/>
</svg>
